<?xml version="1.0" standalone="no"?>
<!DOCTYPE svg PUBLIC "-//W3C//DTD SVG 20010904//EN"
 "http://www.w3.org/TR/2001/REC-SVG-20010904/DTD/svg10.dtd">
<svg version="1.0" xmlns="http://www.w3.org/2000/svg"
 width="127.000000pt" height="127.000000pt" viewBox="0 0 127.000000 127.000000"
 preserveAspectRatio="xMidYMid meet">
<metadata>
Created by potrace 1.11, written by Peter Selinger 2001-2013
</metadata>
<g transform="translate(0.000000,127.000000) scale(0.100000,-0.100000)"
fill="#000000" stroke="none">
<path d="M0 635 l0 -635 635 0 635 0 0 635 0 635 -635 0 -635 0 0 -635z m474
153 l40 -20 39 22 c52 30 124 30 173 1 l36 -22 51 26 c56 28 74 30 130 14 85
-23 146 -117 133 -201 -16 -100 -102 -166 -199 -154 -28 3 -64 15 -80 26 l-28
21 -37 -23 c-50 -31 -133 -31 -183 -1 l-35 22 -49 -24 c-57 -30 -96 -31 -150
-6 -114 52 -147 187 -69 281 59 69 139 83 228 38z"/>
<path d="M335 775 c-104 -36 -136 -158 -64 -240 51 -57 140 -70 197 -27 22 17
22 19 7 55 -19 46 -19 98 0 144 16 38 15 40 -25 62 -30 17 -76 19 -115 6z"/>
<path d="M596 780 c-95 -29 -136 -156 -77 -238 42 -60 147 -78 201 -34 22 17
22 18 5 70 -15 44 -15 59 -5 95 19 67 17 80 -10 93 -38 18 -82 23 -114 14z"/>
<path d="M816 761 c-45 -30 -66 -70 -66 -126 0 -67 27 -111 86 -137 52 -22 90
-19 141 12 90 54 87 198 -5 253 -40 23 -119 22 -156 -2z"/>
</g>
</svg>
